<svg fill="#ffffff" xmlns="http://www.w3.org/2000/svg" width="13px" height="13px" viewBox="0 0 24 24"><path d="M12.336 0c-6.576 0-10.080 4.224-10.080 8.808 0 2.136 1.2 4.8 3.096 5.64 0.288 0.12 0.456 0.072 0.504-0.192 0.048-0.216 0.312-1.176 0.432-1.656 0.048-0.144 0.024-0.288-0.096-0.408-0.624-0.744-1.128-2.064-1.128-3.312 0-3.216 2.544-6.312 6.888-6.312 3.744 0 6.384 2.448 6.384 5.928 0 3.936-2.088 6.672-4.8 6.672-1.488 0-2.616-1.176-2.256-2.64 0.432-1.728 1.272-3.6 1.272-4.848 0-1.128-0.624-2.040-1.92-2.040-1.536 0-2.76 1.512-2.76 3.528 0 1.296 0.456 2.16 0.456 2.16s-1.512 6.096-1.8 7.224c-0.48 1.92 0.072 5.040 0.12 5.328 0.024 0.144 0.192 0.192 0.288 0.072 0.144-0.192 1.968-2.808 2.496-4.68 0.192-0.696 0.96-3.456 0.96-3.456 0.504 0.912 1.944 1.68 3.504 1.68 4.608 0 7.92-4.032 7.92-9.048-0.072-4.848-4.2-8.448-9.48-8.448z"></path></svg>